<svg version="1.1" xmlns="http://www.w3.org/2000/svg" viewBox="0 0 118.25904590996106 74.13834806075684" width="118.25904590996106" height="74.13834806075684">
  <!-- svg-source:excalidraw -->
  
  <defs>
    <style class="style-fonts">
      
    </style>
    
  </defs>
  <g transform="translate(10 10) rotate(0 45.748517988798994 21.67035062627312)" stroke="none">
    <path fill="#000000" d="M 1.49,-0.57 Q 1.49,-0.57 2.61,2.43 3.72,5.45 4.86,8.08 6.00,10.71 8.25,13.79 10.50,16.88 18.28,22.96 26.05,29.04 35.02,32.75 44.00,36.46 53.04,38.04 62.09,39.62 70.49,39.61 78.90,39.59 85.19,39.59 91.49,39.59 91.70,39.63 91.92,39.66 92.11,39.76 92.30,39.86 92.45,40.02 92.60,40.18 92.69,40.37 92.78,40.57 92.80,40.78 92.83,41.00 92.78,41.21 92.73,41.42 92.62,41.61 92.51,41.79 92.35,41.93 92.18,42.07 91.98,42.15 91.78,42.23 91.56,42.24 91.35,42.26 91.14,42.20 90.93,42.14 90.75,42.02 90.57,41.90 90.44,41.73 90.31,41.55 90.24,41.35 90.17,41.14 90.17,40.93 90.17,40.71 90.24,40.51 90.31,40.30 90.44,40.13 90.57,39.96 90.75,39.84 90.93,39.72 91.14,39.66 91.35,39.60 91.56,39.61 91.78,39.62 91.98,39.70 92.18,39.78 92.34,39.92 92.51,40.06 92.62,40.25 92.73,40.43 92.78,40.64 92.83,40.85 92.80,41.07 92.78,41.28 92.69,41.48 92.60,41.68 92.45,41.83 92.30,41.99 92.11,42.09 91.92,42.19 91.71,42.23 91.49,42.26 91.49,42.26 91.49,42.26 85.20,42.27 78.90,42.28 70.26,42.29 61.62,42.29 52.29,40.64 42.96,39.00 33.66,35.12 24.36,31.25 16.29,24.91 8.23,18.58 5.78,15.25 3.33,11.91 2.11,9.23 0.88,6.54 -0.30,3.56 -1.49,0.57 -1.54,0.38 -1.58,0.20 -1.58,0.00 -1.59,-0.18 -1.54,-0.37 -1.49,-0.56 -1.41,-0.73 -1.32,-0.90 -1.19,-1.04 -1.06,-1.19 -0.90,-1.30 -0.75,-1.41 -0.57,-1.48 -0.39,-1.55 -0.19,-1.57 -0.00,-1.60 0.18,-1.57 0.37,-1.55 0.55,-1.48 0.73,-1.42 0.89,-1.31 1.05,-1.20 1.18,-1.05 1.31,-0.91 1.40,-0.74 1.49,-0.57 1.49,-0.57 L 1.49,-0.57 Z"></path>
  </g>
  <g transform="translate(90.92372343335046 42.64568580468777) rotate(0 6.8635326547673685 10.746331128034534)" stroke="none">
    <path fill="#000000" d="M 1.49,-1.47 Q 1.49,-1.47 2.97,0.17 4.45,1.82 5.77,2.96 7.09,4.10 8.58,4.83 10.07,5.57 11.65,5.88 13.24,6.19 14.36,6.26 15.48,6.32 16.22,6.35 16.97,6.37 17.22,6.43 17.48,6.49 17.72,6.61 17.95,6.73 18.15,6.90 18.35,7.08 18.50,7.29 18.66,7.51 18.75,7.76 18.85,8.00 18.88,8.27 18.92,8.53 18.89,8.79 18.86,9.05 18.76,9.30 18.67,9.55 18.52,9.77 18.38,9.99 18.18,10.17 17.98,10.34 17.75,10.47 17.52,10.59 17.26,10.66 17.00,10.72 16.74,10.73 16.48,10.73 14.24,11.58 12.00,12.44 9.51,13.40 7.02,14.36 4.74,15.73 2.46,17.09 1.11,18.58 -0.23,20.07 -1.28,21.34 -2.33,22.62 -2.54,22.79 -2.76,22.97 -3.02,23.06 -3.27,23.16 -3.55,23.17 -3.82,23.18 -4.09,23.10 -4.35,23.02 -4.58,22.86 -4.80,22.70 -4.96,22.48 -5.12,22.25 -5.21,21.99 -5.29,21.73 -5.28,21.45 -5.28,21.18 -5.18,20.92 -5.09,20.66 -4.92,20.44 -4.75,20.23 -4.52,20.08 -4.28,19.93 -4.02,19.86 -3.75,19.79 -3.48,19.81 -3.20,19.83 -2.95,19.94 -2.69,20.05 -2.49,20.23 -2.28,20.41 -2.14,20.65 -2.01,20.89 -1.95,21.16 -1.90,21.43 -1.94,21.71 -1.97,21.98 -2.09,22.23 -2.22,22.47 -2.41,22.67 -2.60,22.87 -2.85,22.99 -3.10,23.11 -3.37,23.15 -3.64,23.19 -3.91,23.14 -4.18,23.09 -4.42,22.95 -4.66,22.82 -4.85,22.62 -5.03,22.41 -5.14,22.16 -5.25,21.91 -5.28,21.63 -5.30,21.36 -5.24,21.09 -5.17,20.82 -5.02,20.59 -4.88,20.36 -4.88,20.36 -4.88,20.36 -3.74,19.16 -2.59,17.97 -0.97,16.11 0.64,14.26 3.11,12.64 5.58,11.01 8.12,9.84 10.66,8.66 13.81,7.51 16.97,6.37 17.22,6.43 17.48,6.49 17.72,6.61 17.95,6.73 18.15,6.90 18.35,7.08 18.50,7.29 18.66,7.51 18.75,7.76 18.85,8.00 18.88,8.27 18.92,8.53 18.89,8.79 18.86,9.05 18.76,9.30 18.67,9.55 18.52,9.77 18.38,9.99 18.18,10.16 17.98,10.34 17.75,10.47 17.52,10.59 17.26,10.66 17.00,10.72 16.74,10.73 16.48,10.73 15.70,10.51 14.93,10.29 13.71,10.03 12.48,9.78 10.47,9.32 8.45,8.87 6.56,7.92 4.66,6.96 3.21,5.72 1.76,4.48 0.13,2.98 -1.49,1.47 -1.65,1.27 -1.80,1.07 -1.90,0.84 -2.01,0.61 -2.05,0.36 -2.09,0.11 -2.08,-0.14 -2.06,-0.39 -1.98,-0.63 -1.91,-0.87 -1.77,-1.09 -1.64,-1.30 -1.46,-1.48 -1.28,-1.66 -1.06,-1.79 -0.84,-1.92 -0.60,-1.99 -0.36,-2.07 -0.11,-2.08 0.14,-2.09 0.39,-2.04 0.63,-2.00 0.87,-1.89 1.10,-1.79 1.29,-1.63 1.49,-1.47 1.49,-1.47 L 1.49,-1.47 Z"></path>
  </g>
</svg>